<?xml version="1.0" encoding="UTF-8"?>
<svg id="_Слой_2" data-name="Слой 2" xmlns="http://www.w3.org/2000/svg" viewBox="0 0 580.28 225.4">
  <g id="New_Layer" data-name="New Layer">
    <g>
      <path d="m408.32,168.67c-.61-1.61-.81-5.44-.41-8.66.41-4.43,3.88-7.65,15.9-15.91,16.51-11.28,21.2-16.51,19.16-21.75-1.02-2.62-4.28-3.22-16.31-3.22h-15.09v-12.09h21.2c23.24,0,24.47.6,26.5,12.09,2.24,12.69-.82,18.33-16.92,29.81l-14.88,10.47h28.95v12.08h-23.45c-18.55,0-23.85-.6-24.67-2.82h0Z" style="fill: #26743f; fill-rule: evenodd;"/>
      <path d="m499.25,166.45c0-5.03-.2-5.03-15.9-5.03-17.74,0-20.79-1.61-20.79-11.08,0-4.83,3.67-9.87,17.53-24.57,16.1-17.32,18.14-18.73,25.28-18.73,9.58,0,10.19,1.41,10.19,24.37,0,16.51.21,17.92,4.08,17.92,3.26,0,4.07,1.41,4.07,6.05s-.81,6.04-4.07,6.04c-3.06,0-4.08,1.41-4.08,5.04,0,4.63-.81,5.03-8.15,5.03s-8.15-.4-8.15-5.03h0s0,0,0,0Zm0-28.6v-11.48l-6.32,6.04c-3.47,3.22-8.16,8.26-10.4,11.48l-3.87,5.43h20.59v-11.47h0Z" style="fill: #26743f; fill-rule: evenodd;"/>
    </g>
    <path d="m577.67,101.41L484.1,7.25c-.12-.12-.25-.24-.37-.35-10.22-9.17-25.66-9.2-35.92-.08-.13.11-.25.23-.37.35l-94.43,94.21c-3.51,3.5-3.52,9.19-.02,12.69,3.51,3.51,9.19,3.52,12.7.01l7.13-7.11v77.51c0,19.8,16.12,40.91,35.93,40.91h113.16c19.81,0,35.92-21.11,35.92-40.91,0-4.96-4.02-8.98-8.98-8.98s-8.98,4.02-8.98,8.98c0,9.9-8.06,17.95-17.96,17.95h-113.16c-9.9,0-17.96-8.05-17.96-17.95v-95.16c0-.09,0-.18,0-.27l69.13-68.97c3.36-2.85,8.3-2.85,11.65.03l68.3,68.73v50.76c0,4.96,4.02,8.98,8.98,8.98s8.98-4.02,8.98-8.98v-32.69l7.1,7.14c1.76,1.77,4.06,2.65,6.37,2.65s4.58-.87,6.33-2.61c3.52-3.5,3.54-9.18.04-12.7Z" style="fill: #eab617; fill-rule: evenodd;"/>
    <g>
      <path d="m18.45,96.88v26.09h39.82v-26.09c0-3.73.84-6.52,2.52-8.39,1.68-1.86,3.88-2.8,6.62-2.8s5.02.92,6.74,2.76c1.72,1.84,2.58,4.65,2.58,8.42v71.75c0,3.77-.87,6.58-2.61,8.45s-3.98,2.79-6.71,2.79-4.99-.94-6.65-2.83c-1.66-1.88-2.48-4.69-2.48-8.42v-30.62H18.45v30.62c0,3.77-.87,6.58-2.61,8.45-1.74,1.86-3.98,2.79-6.71,2.79s-4.99-.94-6.65-2.83c-1.66-1.88-2.48-4.69-2.48-8.42v-71.75c0-3.73.82-6.52,2.45-8.39,1.64-1.86,3.86-2.8,6.68-2.8s5.02.92,6.74,2.76c1.72,1.84,2.58,4.65,2.58,8.42Z" style="fill: #26743f;"/>
      <path d="m158.84,145.39c0,5.05-.79,9.71-2.36,13.98-1.57,4.27-3.85,7.93-6.83,11-2.98,3.07-6.54,5.42-10.68,7.05-4.14,1.63-8.8,2.45-13.98,2.45s-9.75-.83-13.85-2.48c-4.1-1.66-7.65-4.03-10.65-7.11-3-3.08-5.28-6.73-6.83-10.93-1.55-4.2-2.33-8.85-2.33-13.95s.79-9.83,2.36-14.1c1.57-4.26,3.83-7.91,6.77-10.93,2.94-3.02,6.5-5.35,10.68-6.99,4.18-1.64,8.8-2.45,13.85-2.45s9.79.83,13.98,2.48c4.18,1.66,7.77,4.02,10.75,7.08,2.98,3.07,5.25,6.71,6.8,10.93,1.55,4.22,2.33,8.88,2.33,13.98Zm-17.02,0c0-6.92-1.52-12.3-4.57-16.15s-7.13-5.78-12.27-5.78c-3.31,0-6.23.86-8.76,2.58-2.53,1.72-4.47,4.26-5.84,7.61-1.37,3.35-2.05,7.27-2.05,11.74s.67,8.3,2.02,11.62c1.35,3.31,3.27,5.85,5.78,7.61,2.51,1.76,5.46,2.64,8.85,2.64,5.13,0,9.22-1.93,12.27-5.81,3.04-3.87,4.57-9.22,4.57-16.06Z" style="fill: #26743f;"/>
      <path d="m228.6,146.63v22.55c0,3.56-.81,6.23-2.42,8.01s-3.75,2.67-6.4,2.67-4.65-.89-6.24-2.67c-1.59-1.78-2.39-4.45-2.39-8.01v-27.02c0-4.26-.15-7.58-.43-9.94-.29-2.36-1.08-4.3-2.36-5.81-1.28-1.51-3.31-2.27-6.09-2.27-5.55,0-9.2,1.91-10.96,5.71-1.76,3.81-2.64,9.28-2.64,16.4v22.92c0,3.52-.8,6.18-2.39,7.98-1.59,1.8-3.7,2.7-6.31,2.7s-4.67-.9-6.3-2.7c-1.64-1.8-2.45-4.46-2.45-7.98v-48.51c0-3.19.73-5.61,2.21-7.27,1.47-1.66,3.41-2.48,5.81-2.48s4.26.78,5.81,2.33c1.55,1.55,2.33,3.7,2.33,6.43v1.62c2.94-3.52,6.09-6.11,9.44-7.76s7.08-2.49,11.18-2.49,7.93.85,11,2.55c3.06,1.7,5.59,4.27,7.58,7.7,2.86-3.48,5.92-6.06,9.19-7.73,3.27-1.68,6.89-2.52,10.87-2.52,4.64,0,8.63.91,11.99,2.73,3.35,1.82,5.86,4.43,7.52,7.83,1.45,3.07,2.17,7.89,2.17,14.47v33.11c0,3.56-.81,6.23-2.42,8.01-1.61,1.78-3.75,2.67-6.4,2.67s-4.67-.9-6.31-2.7c-1.64-1.8-2.45-4.46-2.45-7.98v-28.51c0-3.64-.16-6.56-.47-8.76-.31-2.19-1.15-4.04-2.52-5.53-1.37-1.49-3.44-2.24-6.21-2.24-2.24,0-4.36.66-6.37,1.99s-3.57,3.11-4.69,5.34c-1.24,2.86-1.86,7.91-1.86,15.16Z" style="fill: #26743f;"/>
      <path d="m332.09,149.55h-33.17c.04,3.85.82,7.25,2.33,10.19s3.52,5.16,6.03,6.65c2.5,1.49,5.27,2.24,8.29,2.24,2.03,0,3.88-.24,5.56-.71,1.68-.48,3.3-1.22,4.88-2.24,1.57-1.01,3.02-2.1,4.35-3.26,1.32-1.16,3.04-2.73,5.16-4.72.87-.75,2.11-1.12,3.73-1.12,1.74,0,3.15.48,4.22,1.43,1.08.95,1.62,2.3,1.62,4.04,0,1.53-.6,3.32-1.8,5.37-1.2,2.05-3.01,4.02-5.44,5.9-2.42,1.89-5.47,3.45-9.13,4.69s-7.88,1.86-12.64,1.86c-10.89,0-19.36-3.11-25.41-9.32-6.05-6.21-9.07-14.64-9.07-25.28,0-5.01.75-9.66,2.24-13.95,1.49-4.29,3.67-7.96,6.52-11.03,2.86-3.06,6.38-5.41,10.56-7.05,4.18-1.64,8.82-2.45,13.91-2.45,6.63,0,12.31,1.4,17.05,4.19,4.74,2.79,8.29,6.41,10.65,10.84s3.54,8.94,3.54,13.54c0,4.27-1.22,7.03-3.67,8.29-2.44,1.26-5.88,1.89-10.31,1.89Zm-33.17-9.63h30.75c-.41-5.8-1.98-10.13-4.69-13.01-2.71-2.88-6.28-4.32-10.71-4.32s-7.69,1.46-10.41,4.38c-2.71,2.92-4.36,7.24-4.94,12.95Z" style="fill: #26743f;"/>
    </g>
  </g>
</svg>