<?xml version="1.0" encoding="us-ascii" standalone="no"?><svg xmlns="http://www.w3.org/2000/svg" xmlns:xlink="http://www.w3.org/1999/xlink" contentStyleType="text/css" height="1091.6667px" preserveAspectRatio="none" style="width:872px;height:1091px;" version="1.1" viewBox="0 0 872 1091" width="872.9167px" zoomAndPan="magnify"><defs><linearGradient id="g5eo5mrf1e2c80" x1="50%" x2="50%" y1="0%" y2="100%"><stop offset="0%" stop-color="#FFFFFF"/><stop offset="100%" stop-color="#EEEEEE"/></linearGradient><linearGradient id="g5eo5mrf1e2c81" x1="50%" x2="50%" y1="0%" y2="100%"><stop offset="0%" stop-color="#F18E3E"/><stop offset="100%" stop-color="#EC7211"/></linearGradient></defs><g><rect fill="url(#g5eo5mrf1e2c80)" height="24.9864" style="stroke:url(#g5eo5mrf1e2c80);stroke-width:1.0416666666666667;" width="839.0625" x="15.625" y="11.4583"/><ellipse cx="139.5833" cy="52.0697" fill="#0073BB" rx="10.4167" ry="10.4167" style="stroke:#222222;stroke-width:1.0416666666666667;"/><rect fill="url(#g5eo5mrf1e2c81)" height="45.8197" rx="4.1667" ry="4.1667" style="stroke:#EC7211;stroke-width:0.5208333333333334;" width="235.4167" x="21.875" y="83.3197"/><text fill="#FFFFFF" font-family="Verdana" font-size="12.5" lengthAdjust="spacing" textLength="200" x="41.6667" y="110.5626">Navigate to "Create Tariff" page</text><rect fill="url(#g5eo5mrf1e2c81)" height="45.8197" rx="4.1667" ry="4.1667" style="stroke:#EC7211;stroke-width:0.5208333333333334;" width="144.7917" x="67.1875" y="149.9728"/><text fill="#FFFFFF" font-family="Verdana" font-size="12.5" lengthAdjust="spacing" textLength="109.375" x="86.9792" y="177.2157">Enter Tariff name</text><rect fill="url(#g5eo5mrf1e2c81)" height="45.8197" rx="4.1667" ry="4.1667" style="stroke:#EC7211;stroke-width:0.5208333333333334;" width="179.1667" x="50" y="216.6258"/><text fill="#FFFFFF" font-family="Verdana" font-size="12.5" lengthAdjust="spacing" textLength="143.75" x="69.7917" y="243.8687">Enter Tariff description</text><rect fill="url(#g5eo5mrf1e2c81)" height="45.8197" rx="4.1667" ry="4.1667" style="stroke:#EC7211;stroke-width:0.5208333333333334;" width="110.4167" x="84.375" y="329.1122"/><text fill="#FFFFFF" font-family="Verdana" font-size="12.5" lengthAdjust="spacing" textLength="75" x="104.1667" y="356.3551">Add Service</text><rect fill="url(#g5eo5mrf1e2c81)" height="45.8197" rx="4.1667" ry="4.1667" style="stroke:#EC7211;stroke-width:0.5208333333333334;" width="121.875" x="78.6458" y="395.7653"/><text fill="#FFFFFF" font-family="Verdana" font-size="12.5" lengthAdjust="spacing" textLength="86.4583" x="98.4375" y="423.0082">Select service</text><rect fill="url(#g5eo5mrf1e2c81)" height="45.8197" rx="4.1667" ry="4.1667" style="stroke:#EC7211;stroke-width:0.5208333333333334;" width="142.7083" x="68.2292" y="462.4184"/><text fill="#FFFFFF" font-family="Verdana" font-size="12.5" lengthAdjust="spacing" textLength="107.2917" x="88.0208" y="489.6613">Fill the price field</text><polygon fill="#EEEEEE" points="139.5833,283.2789,152.0833,295.7789,139.5833,308.2789,127.0833,295.7789,139.5833,283.2789" style="stroke:#BEBEBE;stroke-width:0.5208333333333334;"/><polygon fill="#EEEEEE" points="73.4375,529.0714,205.7292,529.0714,218.2292,541.5714,205.7292,554.0714,73.4375,554.0714,60.9375,541.5714,73.4375,529.0714" style="stroke:#BEBEBE;stroke-width:0.5208333333333334;"/><text fill="#4E5D6C" font-family="Verdana" font-size="12.5" lengthAdjust="spacing" textLength="26.0417" x="148.9583" y="570.8977">[no]</text><text fill="#4E5D6C" font-family="Verdana" font-size="12.5" lengthAdjust="spacing" textLength="121.875" x="78.6458" y="545.9045">Add more services?</text><text fill="#4E5D6C" font-family="Verdana" font-size="12.5" lengthAdjust="spacing" textLength="31.25" x="244.2708" y="533.4113">[yes]</text><rect fill="url(#g5eo5mrf1e2c81)" height="45.8197" rx="4.1667" ry="4.1667" style="stroke:#EC7211;stroke-width:0.5208333333333334;" width="190.625" x="44.2708" y="590.5298"/><text fill="#FFFFFF" font-family="Verdana" font-size="12.5" lengthAdjust="spacing" textLength="155.2083" x="64.0625" y="617.7727">Submit tariff information</text><rect fill="url(#g5eo5mrf1e2c81)" height="45.8197" rx="4.1667" ry="4.1667" style="stroke:#EC7211;stroke-width:0.5208333333333334;" width="173.9583" x="52.6042" y="990.4617"/><text fill="#FFFFFF" font-family="Verdana" font-size="12.5" lengthAdjust="spacing" textLength="138.5417" x="72.3958" y="1017.7046">View "Tariff List" page</text><ellipse cx="139.5833" cy="1068.5731" fill="none" rx="11.4583" ry="11.4583" style="stroke:#222222;stroke-width:1.0416666666666667;"/><ellipse cx="139.5833" cy="1068.5731" fill="#222222" rx="6.25" ry="6.25" style="stroke:#111111;stroke-width:1.0416666666666667;"/><line style="stroke:#0073BB;stroke-width:2.0833333333333335;" x1="15.625" x2="15.625" y1="11.4583" y2="1080.0315"/><rect fill="url(#g5eo5mrf1e2c81)" height="45.8197" rx="4.1667" ry="4.1667" style="stroke:#EC7211;stroke-width:0.5208333333333334;" width="194.7917" x="491.4063" y="657.1828"/><text fill="#FFFFFF" font-family="Verdana" font-size="12.5" lengthAdjust="spacing" textLength="159.375" x="511.1979" y="684.4257">Validate tariff information</text><polygon fill="#EEEEEE" points="565.3646,723.8359,612.2396,723.8359,624.7396,736.3359,612.2396,748.8359,565.3646,748.8359,552.8646,736.3359,565.3646,723.8359" style="stroke:#BEBEBE;stroke-width:0.5208333333333334;"/><text fill="#4E5D6C" font-family="Verdana" font-size="12.5" lengthAdjust="spacing" textLength="36.4583" x="570.5729" y="740.6689">Valid?</text><text fill="#4E5D6C" font-family="Verdana" font-size="12.5" lengthAdjust="spacing" textLength="40.625" x="507.0313" y="728.1757">[Valid]</text><text fill="#4E5D6C" font-family="Verdana" font-size="12.5" lengthAdjust="spacing" textLength="52.0833" x="629.9479" y="728.1757">[Invalid]</text><rect fill="url(#g5eo5mrf1e2c81)" height="45.8197" rx="4.1667" ry="4.1667" style="stroke:#EC7211;stroke-width:0.5208333333333334;" width="314.5833" x="286.9792" y="759.2525"/><text fill="#FFFFFF" font-family="Verdana" font-size="12.5" lengthAdjust="spacing" textLength="279.1667" x="306.7708" y="786.4954">Create new Tariff and TariffService instances</text><rect fill="url(#g5eo5mrf1e2c81)" height="45.8197" rx="4.1667" ry="4.1667" style="stroke:#EC7211;stroke-width:0.5208333333333334;" width="304.1667" x="292.1875" y="825.9056"/><text fill="#FFFFFF" font-family="Verdana" font-size="12.5" lengthAdjust="spacing" textLength="268.75" x="311.9792" y="853.1485">Save new Tariff and TariffService instances</text><rect fill="url(#g5eo5mrf1e2c81)" height="45.8197" rx="4.1667" ry="4.1667" style="stroke:#EC7211;stroke-width:0.5208333333333334;" width="244.7917" x="321.875" y="892.5587"/><text fill="#FFFFFF" font-family="Verdana" font-size="12.5" lengthAdjust="spacing" textLength="209.375" x="341.6667" y="919.8016">Redirect user to "Tariff List" page</text><rect fill="url(#g5eo5mrf1e2c81)" height="45.8197" rx="4.1667" ry="4.1667" style="stroke:#EC7211;stroke-width:0.5208333333333334;" width="221.875" x="622.3958" y="759.2525"/><text fill="#FFFFFF" font-family="Verdana" font-size="12.5" lengthAdjust="spacing" textLength="186.4583" x="642.1875" y="786.4954">Display error message to user</text><polygon fill="#EEEEEE" points="588.8021,944.6284,601.3021,957.1284,588.8021,969.6284,576.3021,957.1284,588.8021,944.6284" style="stroke:#BEBEBE;stroke-width:0.5208333333333334;"/><line style="stroke:#0073BB;stroke-width:2.0833333333333335;" x1="280.7292" x2="280.7292" y1="11.4583" y2="1080.0315"/><line style="stroke:#0073BB;stroke-width:2.0833333333333335;" x1="848.4375" x2="848.4375" y1="11.4583" y2="1080.0315"/><line style="stroke:#EC7211;stroke-width:3.125;" x1="139.5833" x2="139.5833" y1="62.4864" y2="83.3197"/><polygon fill="#EC7211" points="135.4167,72.9031,139.5833,83.3197,143.75,72.9031,139.5833,77.0697" style="stroke:#EC7211;stroke-width:1.0416666666666667;"/><line style="stroke:#EC7211;stroke-width:3.125;" x1="139.5833" x2="139.5833" y1="129.1395" y2="149.9728"/><polygon fill="#EC7211" points="135.4167,139.5561,139.5833,149.9728,143.75,139.5561,139.5833,143.7228" style="stroke:#EC7211;stroke-width:1.0416666666666667;"/><line style="stroke:#EC7211;stroke-width:3.125;" x1="139.5833" x2="139.5833" y1="195.7925" y2="216.6258"/><polygon fill="#EC7211" points="135.4167,206.2092,139.5833,216.6258,143.75,206.2092,139.5833,210.3758" style="stroke:#EC7211;stroke-width:1.0416666666666667;"/><line style="stroke:#EC7211;stroke-width:3.125;" x1="139.5833" x2="139.5833" y1="374.932" y2="395.7653"/><polygon fill="#EC7211" points="135.4167,385.3486,139.5833,395.7653,143.75,385.3486,139.5833,389.5153" style="stroke:#EC7211;stroke-width:1.0416666666666667;"/><line style="stroke:#EC7211;stroke-width:3.125;" x1="139.5833" x2="139.5833" y1="441.585" y2="462.4184"/><polygon fill="#EC7211" points="135.4167,452.0017,139.5833,462.4184,143.75,452.0017,139.5833,456.1684" style="stroke:#EC7211;stroke-width:1.0416666666666667;"/><line style="stroke:#EC7211;stroke-width:3.125;" x1="139.5833" x2="139.5833" y1="308.2789" y2="329.1122"/><polygon fill="#EC7211" points="135.4167,318.6956,139.5833,329.1122,143.75,318.6956,139.5833,322.8622" style="stroke:#EC7211;stroke-width:1.0416666666666667;"/><line style="stroke:#EC7211;stroke-width:3.125;" x1="218.2292" x2="230.7292" y1="541.5714" y2="541.5714"/><polygon fill="#EC7211" points="226.5625,429.0918,230.7292,418.6752,234.8958,429.0918,230.7292,424.9252" style="stroke:#EC7211;stroke-width:3.125;"/><line style="stroke:#EC7211;stroke-width:3.125;" x1="230.7292" x2="230.7292" y1="295.7789" y2="541.5714"/><line style="stroke:#EC7211;stroke-width:3.125;" x1="230.7292" x2="152.0833" y1="295.7789" y2="295.7789"/><polygon fill="#EC7211" points="162.5,291.6122,152.0833,295.7789,162.5,299.9456,158.3333,295.7789" style="stroke:#EC7211;stroke-width:1.0416666666666667;"/><line style="stroke:#EC7211;stroke-width:3.125;" x1="139.5833" x2="139.5833" y1="508.2381" y2="529.0714"/><polygon fill="#EC7211" points="135.4167,518.6548,139.5833,529.0714,143.75,518.6548,139.5833,522.8214" style="stroke:#EC7211;stroke-width:1.0416666666666667;"/><line style="stroke:#EC7211;stroke-width:3.125;" x1="139.5833" x2="139.5833" y1="262.4456" y2="283.2789"/><polygon fill="#EC7211" points="135.4167,272.8622,139.5833,283.2789,143.75,272.8622,139.5833,277.0289" style="stroke:#EC7211;stroke-width:1.0416666666666667;"/><line style="stroke:#EC7211;stroke-width:3.125;" x1="139.5833" x2="139.5833" y1="554.0714" y2="590.5298"/><polygon fill="#EC7211" points="135.4167,580.1131,139.5833,590.5298,143.75,580.1131,139.5833,584.2798" style="stroke:#EC7211;stroke-width:1.0416666666666667;"/><line style="stroke:#EC7211;stroke-width:3.125;" x1="139.5833" x2="139.5833" y1="1036.2815" y2="1057.1148"/><polygon fill="#EC7211" points="135.4167,1046.6981,139.5833,1057.1148,143.75,1046.6981,139.5833,1050.8648" style="stroke:#EC7211;stroke-width:1.0416666666666667;"/><line style="stroke:#EC7211;stroke-width:3.125;" x1="444.2708" x2="444.2708" y1="805.0723" y2="825.9056"/><polygon fill="#EC7211" points="440.1042,815.4889,444.2708,825.9056,448.4375,815.4889,444.2708,819.6556" style="stroke:#EC7211;stroke-width:1.0416666666666667;"/><line style="stroke:#EC7211;stroke-width:3.125;" x1="444.2708" x2="444.2708" y1="871.7253" y2="892.5587"/><polygon fill="#EC7211" points="440.1042,882.142,444.2708,892.5587,448.4375,882.142,444.2708,886.3087" style="stroke:#EC7211;stroke-width:1.0416666666666667;"/><line style="stroke:#EC7211;stroke-width:3.125;" x1="552.8646" x2="444.2708" y1="736.3359" y2="736.3359"/><line style="stroke:#EC7211;stroke-width:3.125;" x1="444.2708" x2="444.2708" y1="736.3359" y2="759.2525"/><polygon fill="#EC7211" points="440.1042,748.8359,444.2708,759.2525,448.4375,748.8359,444.2708,753.0025" style="stroke:#EC7211;stroke-width:1.0416666666666667;"/><line style="stroke:#EC7211;stroke-width:3.125;" x1="624.7396" x2="733.3333" y1="736.3359" y2="736.3359"/><line style="stroke:#EC7211;stroke-width:3.125;" x1="733.3333" x2="733.3333" y1="736.3359" y2="759.2525"/><polygon fill="#EC7211" points="729.1667,748.8359,733.3333,759.2525,737.5,748.8359,733.3333,753.0025" style="stroke:#EC7211;stroke-width:1.0416666666666667;"/><line style="stroke:#EC7211;stroke-width:3.125;" x1="444.2708" x2="444.2708" y1="938.3784" y2="957.1284"/><line style="stroke:#EC7211;stroke-width:3.125;" x1="444.2708" x2="576.3021" y1="957.1284" y2="957.1284"/><polygon fill="#EC7211" points="565.8854,952.9617,576.3021,957.1284,565.8854,961.2951,570.0521,957.1284" style="stroke:#EC7211;stroke-width:1.0416666666666667;"/><line style="stroke:#EC7211;stroke-width:3.125;" x1="733.3333" x2="733.3333" y1="805.0723" y2="957.1284"/><line style="stroke:#EC7211;stroke-width:3.125;" x1="733.3333" x2="601.3021" y1="957.1284" y2="957.1284"/><polygon fill="#EC7211" points="611.7188,952.9617,601.3021,957.1284,611.7188,961.2951,607.5521,957.1284" style="stroke:#EC7211;stroke-width:1.0416666666666667;"/><line style="stroke:#EC7211;stroke-width:3.125;" x1="588.8021" x2="588.8021" y1="703.0025" y2="723.8359"/><polygon fill="#EC7211" points="584.6354,713.4192,588.8021,723.8359,592.9688,713.4192,588.8021,717.5859" style="stroke:#EC7211;stroke-width:1.0416666666666667;"/><line style="stroke:#EC7211;stroke-width:3.125;" x1="139.5833" x2="139.5833" y1="636.3495" y2="641.5578"/><line style="stroke:#EC7211;stroke-width:3.125;" x1="139.5833" x2="588.8021" y1="641.5578" y2="641.5578"/><line style="stroke:#EC7211;stroke-width:3.125;" x1="588.8021" x2="588.8021" y1="641.5578" y2="657.1828"/><polygon fill="#EC7211" points="584.6354,646.7662,588.8021,657.1828,592.9688,646.7662,588.8021,650.9328" style="stroke:#EC7211;stroke-width:1.0416666666666667;"/><line style="stroke:#EC7211;stroke-width:3.125;" x1="588.8021" x2="588.8021" y1="969.6284" y2="974.8367"/><line style="stroke:#EC7211;stroke-width:3.125;" x1="588.8021" x2="139.5833" y1="974.8367" y2="974.8367"/><line style="stroke:#EC7211;stroke-width:3.125;" x1="139.5833" x2="139.5833" y1="974.8367" y2="990.4617"/><polygon fill="#EC7211" points="135.4167,980.0451,139.5833,990.4617,143.75,980.0451,139.5833,984.2117" style="stroke:#EC7211;stroke-width:1.0416666666666667;"/><text fill="#EC7211" font-family="Verdana" font-size="12.5" lengthAdjust="spacing" textLength="28.125" x="134.1146" y="28.2846">User</text><text fill="#EC7211" font-family="Verdana" font-size="12.5" lengthAdjust="spacing" textLength="40.625" x="544.2708" y="28.2846">Server</text><!--SRC=[bPBDQiCm48JlUefjJlQXBn0VIkaF14eFTTkBoK6Driw2B9bTnI6GX-_AiQ6bkLGdQTWPVnhv9ksnHx17kOriGuVc_278PoF9SZ9hUBKZTJOXf0Yh1yQyVRTCRRk2mNPOwSnJICYp2i7sVqM7icCQ4iLG6SP1OmpeMiEzSr0ZZxHJrqMgqUCkWVnMdybxK5eOM5Le2RrRik2u9uzGvB0-CYvUkIk118gS0Cq9PLj2Y0cA9iHjMHd5h0zVFIL85quARUJUNZZFcIjtiOPFwybDBLoPenQAQK2_fe2XQARJjZIPU-uiu74fmmOtR-UBQvpM7PItcYor7VzdU4D7d3ixwCMdbvgTBoHfUIVqeXKrcp3-e7ia6Rmz0J97XXv5T3Odv2Jr14Vjyaje3QHGrx8bnU4R]--></g></svg>